PathFileType	4	(X/Y/Z)	Formatted/subject04/trials/walk2/markers.trc
DataRate	CameraRate	NumFrames	NumMarkers	Units	OrigDataRate	OrigDataStartFrame	OrigNumFrames
199.9999999999954	199.9999999999954	4	64	m	199.9999999999954	195	223
Frame#	Time	CLAV			C7			RACR			RASH			RPSH			RLEL			RMEL			RUA1			RUA2			RUA3			RFAsuperior			RFAradius			RFAulna			RASI			RPSI			RCAL			RTOE			RMT5			RTH1			RTH2			RTH3			RTB1			RTB2			RTB3			RLFC			RMFC			RLMAL			RMMAL			RHJC			RKJC			REJC			RAJC			RSJC			LACR			LASH			LPSH			LLEL			LMEL			LUA1			LUA2			LUA3			LFAsuperior			LFAradius			LFAulna			LASI			LPSI			LCAL			LTOE			LMT5			LTH1			LTH2			LTH3			LTB1			LTB2			LTB3			LLFC			LMFC			LLMAL			LMMAL			LHJC			LKJC			LEJC			LAJC			LSJC			
		X1	Y1	Z1	X2	Y2	Z2	X3	Y3	Z3	X4	Y4	Z4	X5	Y5	Z5	X6	Y6	Z6	X7	Y7	Z7	X8	Y8	Z8	X9	Y9	Z9	X10	Y10	Z10	X11	Y11	Z11	X12	Y12	Z12	X13	Y13	Z13	X14	Y14	Z14	X15	Y15	Z15	X16	Y16	Z16	X17	Y17	Z17	X18	Y18	Z18	X19	Y19	Z19	X20	Y20	Z20	X21	Y21	Z21	X22	Y22	Z22	X23	Y23	Z23	X24	Y24	Z24	X25	Y25	Z25	X26	Y26	Z26	X27	Y27	Z27	X28	Y28	Z28	X29	Y29	Z29	X30	Y30	Z30	X31	Y31	Z31	X32	Y32	Z32	X33	Y33	Z33	X34	Y34	Z34	X35	Y35	Z35	X36	Y36	Z36	X37	Y37	Z37	X38	Y38	Z38	X39	Y39	Z39	X40	Y40	Z40	X41	Y41	Z41	X42	Y42	Z42	X43	Y43	Z43	X44	Y44	Z44	X45	Y45	Z45	X46	Y46	Z46	X47	Y47	Z47	X48	Y48	Z48	X49	Y49	Z49	X50	Y50	Z50	X51	Y51	Z51	X52	Y52	Z52	X53	Y53	Z53	X54	Y54	Z54	X55	Y55	Z55	X56	Y56	Z56	X57	Y57	Z57	X58	Y58	Z58	X59	Y59	Z59	X60	Y60	Z60	X61	Y61	Z61	X62	Y62	Z62	X63	Y63	Z63	X64	Y64	Z64	

196	2.385	2.459693529591028	1.447255282700002	-0.4702965975333643	2.359002297288384	1.545267834095075	-0.510325116138976	2.394590924070587	1.497672397203935	-0.3328783005088376	2.44574707172527	1.446650851651808	-0.3022887475069287	2.346992163703235	1.470229210903172	-0.3106592383278509	2.292039961172889	1.179781326666407	-0.2340818075069327	2.263006665066617	1.184001920754125	-0.3150760505794465	2.352816876409936	1.355727913625483	-0.2609092440693757	2.29013407790839	1.330133983916601	-0.2625527113820451	2.322014779648862	1.259571632427067	-0.2478883251763327	2.327040045454067	1.095851929448336	-0.2934151505619422	2.376562268474248	0.9201763933689415	-0.2504253072541245	2.315124125946332	0.9290478628674825	-0.2112232566909103	2.433491136441617	1.009033636864989	-0.3703993023708333	2.255335013604222	1.0442280537671	-0.4551970426122872	2.404575564389903	0.1258684157085761	-0.3899200823434931	2.635126098669425	0.07865137708077773	-0.3844244994178205	2.609848750869369	0.05786708052905174	-0.3112655791055188	2.411917892704229	0.8546004270913485	-0.3029468094415613	2.486884212468069	0.7789830734138018	-0.3019382019574522	2.483120948898537	0.6288993828709017	-0.3094327224382345	2.573972070720778	0.3802597872822537	-0.3609755385087791	2.513700050793778	0.2844910062848942	-0.3206272791986453	2.532111497224861	0.2075872533528132	-0.3809005698428578	2.549039522119348	0.5267467124390841	-0.3126367048151967	2.563101570943519	0.5377975244278248	-0.4369914466697393	2.477727471559418	0.111940031940797	-0.3223819551043642	2.490132720700124	0.1098327367186874	-0.4228543427770928	2.353134974821335	0.9192438346070462	-0.4224119722548308	2.561976732844513	0.5376982840745775	-0.3801340205599936	2.278047019891266	1.177028706569195	-0.2717313451796597	2.469580226396884	0.1008368914528744	-0.380884803127309	2.399485335062348	1.457696134043109	-0.3062099039319897	2.422377245470649	1.500959841358427	-0.6798590429882437	2.477019035943523	1.439233873753125	-0.692127311255217	2.370363735279726	1.464698501744599	-0.701167441341813	2.403271683672327	1.165584928762311	-0.7906209759534829	2.34943072474638	1.154994716062352	-0.7245001308143261	2.404879823346207	1.371944298116589	-0.7611997484255605	2.346357641414574	1.300126878604085	-0.7631770087612866	2.411953016815236	1.236516241547502	-0.7754183903484784	2.448884060002974	1.112691836587945	-0.7221590110876183	2.56818067196632	0.9702394487949398	-0.6956885528264967	2.526665126420719	0.9416896265131491	-0.751233102017956	2.438803233648771	1.008215952183713	-0.6277950017235241	2.259566933287801	1.045609470874904	-0.5483732077978267	2.106180587560785	0.07591032287657101	-0.5592239224319444	2.345326374341016	0.04340161003116634	-0.5538957522702512	2.313013429869376	0.02413984735974119	-0.6391694203064382	2.356566333081192	0.8482279847614732	-0.6856411823433751	2.389913359495464	0.7114160125916088	-0.6638574469240676	2.2915026986484	0.6118598407311164	-0.6601479895801385	2.281043790928575	0.3222885080773762	-0.5937393012975172	2.234987327501467	0.2700983326907285	-0.6356708360775551	2.243291301218404	0.1888896628042761	-0.5814849189381248	2.297607911805924	0.4920010979013658	-0.6348280013493015	2.295372535957893	0.4941035557782267	-0.5159944183690091	2.185804862616217	0.0717441307703709	-0.6250720135898016	2.193315807682168	0.07150184225892847	-0.5240940031887809	2.355978746328629	0.9204709898803294	-0.5818542582745299	2.297270170671224	0.4919959376094152	-0.5734267592075438	2.377781934376395	1.153743199589104	-0.7590586052228989	2.174162357620588	0.06282705435680491	-0.5667866948131992	2.430757299280601	1.450279156144427	-0.6960484676802781	
197	2.39	2.465742196866787	1.446532349053871	-0.4698838287247902	2.365116131604005	1.54461324427661	-0.5099088181363181	2.400653622326505	1.496967108427376	-0.3324653599921463	2.451774643672167	1.445909174321528	-0.3018777996502146	2.353035271854199	1.469549556573329	-0.3102566289235608	2.296389688893639	1.179628426273998	-0.2340511903478973	2.267657960101045	1.183999462394862	-0.3151449318570677	2.358168664524235	1.355258116825127	-0.2606654009831895	2.295360258017039	1.329989008387324	-0.2625254228975233	2.326824540935701	1.259262535661128	-0.2477526855035	2.331025716557959	1.095420136091372	-0.2932003189600973	2.379070160082468	0.9193897943866758	-0.2499854902201633	2.317521137780492	0.9287104681717583	-0.2110625921964063	2.439249770749099	1.008042030330435	-0.3702052823299681	2.261107454392687	1.043741211116052	-0.4548208332056647	2.422998724890179	0.1194955074586977	-0.3888965293098163	2.654918845345757	0.07964435255746258	-0.3827205916520489	2.630155115552692	0.05839423403192716	-0.3095198466722092	2.417196842205275	0.8533800684638584	-0.3028840843975038	2.491902281608529	0.7775027961692722	-0.3020549656565984	2.487620529793705	0.6274498079008439	-0.3098787416003969	2.583320842372986	0.3795528661548644	-0.3608261187483836	2.526302916777129	0.2819452391907178	-0.3201559189906747	2.547532739524616	0.2054363489640795	-0.3800034125238493	2.553186113490627	0.5250778822484596	-0.313318937466256	2.567265123979177	0.5363535957452336	-0.4376515688759375	2.496346826202857	0.1082426477068507	-0.3211491162009059	2.509084187306243	0.1060810300500329	-0.4215787862455836	2.358616846362612	0.918488200092122	-0.4221964558391055	2.565918186128541	0.5363852401998508	-0.3807903328463685	2.282512534097032	1.176948374048136	-0.2717487884795862	2.488745125398436	0.09658017498871507	-0.3796165552948802	2.40552018494404	1.456983511387384	-0.3058028622233137	2.428484764010308	1.500293887492655	-0.6794421354270499	2.483090139047468	1.438536359171929	-0.691713706717169	2.376451617484063	1.464067972003875	-0.700762842332383	2.410216600762302	1.16484472971798	-0.79024315823036	2.35629503883086	1.154122394256227	-0.7242093463902762	2.411260251021919	1.371208663323476	-0.7608285060352763	2.352921366566518	1.299244849441054	-0.7628975961504942	2.418695603251557	1.235798170287074	-0.7750296420082095	2.456105213986436	1.112711603475333	-0.7214859995442978	2.576668358088356	0.9714933606129412	-0.6941549596531091	2.535561559580293	0.9423345611125801	-0.7496871606473825	2.444326186244726	1.007359182926057	-0.6276061307267347	2.265258343938836	1.045165523258959	-0.5479999975451896	2.106408622696111	0.07643681931984307	-0.5592943177737159	2.345456763744182	0.04319504454402411	-0.5541093573989467	2.313041483248303	0.02408514785378729	-0.6393783539970385	2.361400257976396	0.8475746811701743	-0.6854413818011189	2.393625206965598	0.7104936664512499	-0.6636602180403436	2.294411070346102	0.6117347487542135	-0.6600434698024651	2.282220827830573	0.3222113876519959	-0.5937523622461922	2.23594725629439	0.2702225241420113	-0.6356949478548189	2.243957005294448	0.1889529871229896	-0.5815560160762039	2.299529382312714	0.4918257202060243	-0.6347428488678154	2.297222874472912	0.4939231963502517	-0.5159105372112237	2.186001603689099	0.0720543828080597	-0.6251850070435429	2.193548927312345	0.07172832516586464	-0.5242099448915682	2.36131906600756	0.9198000170858022	-0.5816405296167266	2.299111243270828	0.4918437358785393	-0.5733541587594656	2.384705368311494	1.152940481936679	-0.7587216890590459	2.174346256108766	0.06315084037451152	-0.5669001859994289	2.436835680319341	1.449610696237786	-0.695638769290268	
198	2.395	2.471817355728297	1.445780866089801	-0.4694482145555102	2.371249901757726	1.543927227837012	-0.5094600337220905	2.406752367606441	1.496229116552448	-0.3320235283323483	2.457842473351215	1.445136111859051	-0.3014428763994642	2.359117188573844	1.468835287094329	-0.3098216137031681	2.300826088811951	1.179424158513607	-0.2340373474531211	2.272400140420712	1.183949193368614	-0.3152303436150856	2.363576688148997	1.354745464219906	-0.2604105969508729	2.300649371369426	1.329791561132114	-0.2624936174368588	2.331707159377324	1.258906505014264	-0.2476211113530336	2.335094447729233	1.094942174324412	-0.2930112185987058	2.381650301187991	0.9185623697308373	-0.2495924643842786	2.319994038285103	0.9283316165412148	-0.2109503091867139	2.445033646488249	1.006985598632444	-0.3699925263226448	2.266911336799429	1.043226184044102	-0.4544198358600813	2.441434010318941	0.1134919560583798	-0.3878687816749318	2.674487073184693	0.08104898749486128	-0.3810187667316869	2.650243964414653	0.05935160703901686	-0.307774966483918	2.422499838074534	0.8520912394742459	-0.3028333603678258	2.496906741121684	0.7759192351726053	-0.3022095777219314	2.492030627627244	0.6259014962847851	-0.3103548642781371	2.592473412601584	0.3788976820421387	-0.3607131960467175	2.538773953252742	0.279563663960447	-0.3197073580898255	2.56281838933334	0.2035497063644315	-0.3791193222381525	2.557191214058936	0.5232802637223499	-0.3140524957004677	2.571246374731091	0.5347691719242181	-0.4383683069686355	2.514882705976021	0.1049208610345296	-0.3199165975349092	2.527965213608253	0.1027151212600464	-0.4203009304268253	2.364111020186832	0.9176868346906559	-0.4219723150801708	2.56967970475898	0.5349302523386086	-0.3815002046569581	2.287067486342629	1.176818363061067	-0.2717835750557746	2.507853090674492	0.09271642528154905	-0.3783449880303921	2.411594613697256	1.456237990498017	-0.3053678958893843	2.434599830192693	1.499601052106247	-0.678998558378755	2.489169856191484	1.437814005991567	-0.6912787841126842	2.382546548631923	1.463409115245667	-0.7003278204006844	2.417149061649612	1.164078649419808	-0.7898279377118526	2.363157666181684	1.153226569691461	-0.7238724284195451	2.417636924190108	1.370446407571218	-0.7604256512623486	2.359480105812527	1.298337736373717	-0.7625753247811056	2.425429467485911	1.235053904275962	-0.7746067891041897	2.463301802960713	1.112680621158017	-0.7207904945676101	2.585077570101716	0.9726684808668691	-0.6926424452084151	2.544368029083571	0.9429272174079002	-0.7481583919004186	2.449872792481113	1.006469415710553	-0.6273983328839731	2.270980851196181	1.044704560216574	-0.5476017475843222	2.10664432250068	0.07698927093273593	-0.5593705609870097	2.345588287928191	0.04298482415567358	-0.5543315007537247	2.313068150215441	0.02403258635710514	-0.6395957586086645	2.36624665458545	0.8469028209282602	-0.685235303727125	2.397363767100632	0.7095645009656502	-0.6634641713021557	2.297363546414386	0.6115983649561503	-0.659936898172905	2.283438653737686	0.3221328449061782	-0.5937696113389042	2.236941110301588	0.2703533985152372	-0.6357235530508213	2.244644958378623	0.1890223016909716	-0.581632693613875	2.301509327891971	0.4916466559184847	-0.6346605523270324	2.299139554350345	0.4937356203248435	-0.5158293355558895	2.186204570224183	0.07238146004896912	-0.6253046092147229	2.193788371076323	0.07196900643204196	-0.5243325961085946	2.366670964997772	0.9191030807018166	-0.581417843231445	2.301017298177197	0.4916846893132126	-0.5732837693517274	2.391621352497145	1.152113056232105	-0.7583430562572677	2.174535434154005	0.06349237039386452	-0.5670203411168223	2.442921996537525	1.448915884630533	-0.6952038036026043	
199	2.4	2.477918644841667	1.44500213161409	-0.4689889350018264	2.377402945707486	1.543210746842024	-0.5089780449936108	2.412886140806843	1.495459116801577	-0.3315520800380862	2.463949667112135	1.444332505830877	-0.3009832030850226	2.365236938194916	1.468086837784078	-0.309353678769409	2.30535012268219	1.179168307411088	-0.2340371128766683	2.277233403331357	1.183850458624388	-0.3153288139358755	2.36904085192028	1.354190334168528	-0.2601431926212253	2.30600131246351	1.329541683573804	-0.2624548888975541	2.336663108867899	1.25850359764211	-0.2474911526527233	2.339248251955108	1.094418609719458	-0.2928452447735792	2.384309285565817	0.9176958962717411	-0.2492441326445928	2.322549855875242	0.9279118779961804	-0.2108832716218554	2.450848079853641	1.005867313593277	-0.3697639262492419	2.272749717136366	1.042682560584154	-0.453992891706598	2.459833635139379	0.1078927239652417	-0.3868531387003601	2.693779432845185	0.08287250227684574	-0.3793330810209168	2.670060076230742	0.06074468381826548	-0.3060465837088078	2.427834790101966	0.8507411878503855	-0.3027937097516065	2.501909141373866	0.7742442262037905	-0.3023988582947156	2.496370979490513	0.6242666491000108	-0.3108545833340705	2.601428400857042	0.3783037040818653	-0.3606359620758381	2.55109448489433	0.2773625590020055	-0.3192869601170969	2.577937043515168	0.2019439956627158	-0.3782577621324106	2.561079724450813	0.5213701894298552	-0.3148280941119421	2.575070741705906	0.5330591764102629	-0.4391324886601371	2.533286328650767	0.1019958885626256	-0.318699966408108	2.546727524131185	0.09976101010210303	-0.4190362567839189	2.369623402353999	0.9168413137400117	-0.4217404809978237	2.573287253695218	0.5333474079377329	-0.3822540463704651	2.291712507812356	1.176638239500834	-0.2718323669056097	2.526853825481822	0.0892722045809472	-0.3770863631811978	2.417707689250864	1.455460222634354	-0.3049043524193734	2.44072251546845	1.49888296839547	-0.6785274913910206	2.495258566621184	1.437068709198291	-0.690821686514453	2.388648819390588	1.462723387707748	-0.6998618002535903	2.424068975740922	1.163288468845134	-0.7893752512498695	2.370018451580106	1.152309039620586	-0.7234892846343872	2.424010051208197	1.369659315511685	-0.759990659423775	2.366033913481834	1.297407396032018	-0.7622098186670252	2.432154628388082	1.234285210117195	-0.7741496071694405	2.470474121359985	1.112597958405006	-0.7200734331057791	2.593406857235178	0.9737587962602201	-0.6911549428341661	2.553081167753987	0.9434629432799756	-0.7466511578332015	2.455442831978552	1.005549560078691	-0.627174532704865	2.276735474287054	1.044226187607581	-0.5471773655832328	2.106888606730106	0.07756981795808274	-0.5594520617854525	2.345721482542512	0.0427721190390986	-0.5545642479600112	2.313093042513679	0.02398372293103261	-0.6398233906659679	2.371106856420433	0.8462141295439329	-0.6850240261770577	2.40113144831832	0.7086299566496976	-0.6632710889299915	2.30036279373703	0.6114513679003855	-0.6598287437661621	2.284700050374522	0.3220533029227588	-0.5937918364905963	2.237970850882683	0.2704920107075426	-0.635757070902667	2.245356824851572	0.1890986217467089	-0.5817155934759635	2.30355137904655	0.4914641974448476	-0.6345818525865645	2.301127870453703	0.493540668471127	-0.5157515006035067	2.186413977186805	0.07272724585279472	-0.6254310907345948	2.194035291756256	0.07222548989580174	-0.5244623065027925	2.372036888998393	0.9183817069789065	-0.5811871422627272	2.302992937104482	0.4915187035236624	-0.5732162514845351	2.398529755838364	1.151262709904455	-0.7579226443025059	2.174730592049491	0.06385353833705631	-0.5671473332554559	2.449016588759912	1.448196426001768	-0.6947428358488038	
